<?xml version="1.0" standalone="no"?>
<!DOCTYPE svg PUBLIC "-//W3C//DTD SVG 20010904//EN"
 "http://www.w3.org/TR/2001/REC-SVG-20010904/DTD/svg10.dtd">
<svg version="1.0" xmlns="http://www.w3.org/2000/svg"
 width="192.000000pt" height="192.000000pt" viewBox="0 0 192.000000 192.000000"
 preserveAspectRatio="xMidYMid meet">
<metadata>
Created by potrace 1.15, written by Peter Selinger 2001-2017
</metadata>
<g transform="translate(0.000000,192.000000) scale(0.100000,-0.100000)"
fill="#000000" stroke="none">
<path d="M553 1424 c-10 -5 -13 -107 -13 -465 l0 -459 23 -5 c13 -4 46 -5 73
-3 l49 3 7 55 c3 30 6 125 7 210 1 85 4 199 8 252 5 86 8 95 21 81 8 -8 21
-45 28 -81 7 -37 20 -105 29 -152 9 -47 23 -114 30 -150 31 -164 38 -196 41
-208 3 -9 23 -12 75 -10 l72 3 19 85 c11 47 26 118 34 158 8 39 21 107 30 150
8 42 24 110 35 149 10 40 19 80 19 88 0 9 4 14 8 11 5 -3 12 -146 15 -317 5
-239 9 -314 19 -321 7 -4 40 -7 73 -6 l60 3 0 465 0 465 -109 3 c-119 3 -136
-3 -136 -49 0 -15 -5 -40 -10 -54 -6 -14 -17 -59 -26 -98 -8 -40 -22 -99 -30
-132 -7 -33 -18 -85 -24 -115 -13 -67 -41 -150 -51 -150 -4 0 -10 15 -14 33
-3 17 -13 61 -21 97 -9 36 -22 94 -31 130 -8 36 -20 90 -28 120 -7 30 -22 91
-32 135 l-19 80 -110 2 c-60 1 -115 -1 -121 -3z"/>
</g>
</svg>
